<svg width="32" height="32" viewBox="0 0 32 32" fill="none" xmlns="http://www.w3.org/2000/svg">
<path d="M23.9873 2.12716C22.6423 1.98482 21.2904 1.91565 19.9378 1.92013C15.4535 1.92013 12.667 4.77551 12.667 9.37325V12.4943H8.90007C8.53206 12.4941 8.23356 12.7923 8.2334 13.1603V18.2951C8.23315 18.6631 8.53133 18.9615 8.89933 18.9618H12.667V29.2535C12.6667 29.6215 12.9649 29.9199 13.3329 29.9201H18.637C19.005 29.9204 19.3035 29.6222 19.3037 29.2542V18.9618H23.059C23.394 18.9617 23.677 18.7133 23.7205 18.3811L24.3832 13.2469C24.4308 12.882 24.1736 12.5476 23.8086 12.5C23.7798 12.4962 23.7508 12.4943 23.7218 12.4943H19.3037V9.88237C19.3037 8.5894 19.5641 8.04903 21.1813 8.04903L23.9001 8.04773C24.2681 8.04789 24.5665 7.7498 24.5667 7.3818V2.78862C24.5668 2.45398 24.319 2.1711 23.9873 2.12716ZM23.2334 6.7144L21.1813 6.7157C18.3037 6.7157 17.9704 8.52299 17.9704 9.88237V13.1611C17.9702 13.529 18.2683 13.8275 18.6363 13.8277H22.9639L22.473 17.6285H18.637C18.269 17.6283 17.9706 17.9264 17.9704 18.2944V28.5868H14.0003V18.2951C14.0006 17.9271 13.7024 17.6287 13.3345 17.6285H9.56673V13.8277H13.3337C13.7017 13.8279 14.0001 13.5297 14.0003 13.1617V9.37325C14.0003 5.54122 16.2203 3.25346 19.9378 3.25346C21.2829 3.25346 22.4977 3.32638 23.2334 3.39018V6.7144Z" fill="#4D4D4D"/>
</svg>
