<svg width="32" height="32" viewBox="0 0 32 32" fill="none" xmlns="http://www.w3.org/2000/svg">
<path d="M24.9688 0.59375H7.03125C3.3625 0.59375 0.375 3.58125 0.375 7.25V24.75C0.375 28.4188 3.3625 31.4062 7.03125 31.4062H24.9688C28.6375 31.4062 31.625 28.4188 31.625 24.75V7.25C31.625 3.58125 28.6375 0.59375 24.9688 0.59375ZM30.375 24.75C30.375 27.7313 27.95 30.1562 24.9688 30.1562H7.03125C4.05 30.1562 1.625 27.7313 1.625 24.75V7.25C1.625 4.26875 4.05 1.84375 7.03125 1.84375H24.9688C27.95 1.84375 30.375 4.26875 30.375 7.25V24.75Z" fill="#4D4D4D"/>
<path d="M16 8.31289C11.7625 8.31289 8.3125 11.7629 8.3125 16.0004C8.3125 20.2379 11.7625 23.6879 16 23.6879C20.2375 23.6879 23.6875 20.2379 23.6875 16.0004C23.6875 11.7629 20.2375 8.31289 16 8.31289ZM16 22.4379C12.45 22.4379 9.5625 19.5504 9.5625 16.0004C9.5625 12.4504 12.45 9.56289 16 9.56289C19.55 9.56289 22.4375 12.4504 22.4375 16.0004C22.4375 19.5504 19.55 22.4379 16 22.4379ZM25.1063 5.11914C23.9313 5.11914 22.975 6.07539 22.975 7.25039C22.975 8.42539 23.9313 9.38164 25.1063 9.38164C26.2813 9.38164 27.2375 8.42539 27.2375 7.25039C27.2375 6.07539 26.2813 5.11914 25.1063 5.11914ZM25.1063 8.13164C24.6188 8.13164 24.225 7.73789 24.225 7.25039C24.225 6.76289 24.6188 6.36914 25.1063 6.36914C25.5938 6.36914 25.9875 6.76289 25.9875 7.25039C25.9875 7.73789 25.5938 8.13164 25.1063 8.13164Z" fill="#4D4D4D"/>
</svg>
