<svg width="32" height="32" viewBox="0 0 32 32" fill="none" xmlns="http://www.w3.org/2000/svg">
<path d="M0.419642 26.3233L0.515455 26.3895C2.23021 27.5958 6.36246 29.0973 10.4063 29.0973C19.971 29.0973 28.244 21.8774 28.7138 10.4893C28.7338 10.0113 28.8111 9.7254 29.1966 9.39571C29.8535 8.83408 30.455 8.20102 31.037 7.5894C31.2777 7.33608 31.5184 7.08296 31.763 6.83452C31.9006 6.69496 31.9069 6.47302 31.7775 6.3259L31.6399 6.16983C31.5383 6.05483 31.3763 6.01302 31.2329 6.06502C30.5708 6.30921 30.0618 6.50315 29.3434 6.67865C30.1466 5.83115 30.6567 4.99996 30.9533 4.07608C30.9971 3.93996 30.9591 3.7909 30.8561 3.69221C30.754 3.59352 30.6042 3.56215 30.4686 3.61152C29.0597 4.12583 28.1058 4.47146 27.2677 4.80033C26.9176 4.93721 26.7071 4.88421 26.3254 4.56671C24.2691 2.8559 21.9017 2.45596 19.4783 3.40777C17.038 4.36683 15.572 6.23908 15.2394 8.82196C15.1555 9.47189 15.1985 10.1358 15.2156 10.78C10.1861 10.3191 6.08327 8.16608 2.68452 4.20765C2.60089 4.1104 2.47302 4.06396 2.34564 4.08171C2.21877 4.10065 2.11033 4.18358 2.05877 4.30127C0.716268 7.37108 1.01433 10.0278 2.97577 12.3856L1.62358 12.0088C1.50689 11.9762 1.38146 12.0025 1.28758 12.0793C1.19327 12.1556 1.14271 12.2733 1.15096 12.3943C1.34158 15.1634 2.56246 17.154 4.87064 18.4411L3.81458 18.4878C3.69352 18.4931 3.58264 18.5568 3.51702 18.6585C3.45139 18.7606 3.43971 18.8875 3.48446 18.9998C4.47246 21.4581 6.20689 22.9163 8.77077 23.4366C6.38289 25.0111 3.70814 25.7307 0.63858 25.6393C0.477643 25.6456 0.323017 25.7404 0.271955 25.8989C0.220767 26.0574 0.28108 26.2305 0.419642 26.3233ZM9.96533 23.5076C10.0878 23.4152 10.1413 23.2576 10.101 23.1103C10.0601 22.9625 9.93377 22.8546 9.78158 22.838C7.15252 22.5492 5.42639 21.392 4.39121 19.2098L6.44458 19.1193C6.62158 19.1116 6.76889 18.9803 6.79658 18.8052C6.82477 18.6301 6.72558 18.4595 6.55933 18.3968C3.80483 17.3606 2.29171 15.5513 1.94796 12.8746L4.07571 13.4673C4.24152 13.514 4.41702 13.4396 4.50164 13.2903C4.58577 13.1401 4.55658 12.9519 4.43064 12.8343C2.01508 10.5816 1.39996 8.12758 2.51927 5.1504C6.06777 9.07965 10.3422 11.1772 15.5677 11.5584C15.7868 11.5738 15.9683 11.4001 15.9683 11.186C15.9683 10.3821 15.888 9.63514 15.9805 8.91721C16.2805 6.58815 17.549 4.96852 19.7516 4.10302C21.9373 3.24433 23.9877 3.59296 25.848 5.1409C26.2798 5.49971 26.7816 5.79146 27.5406 5.49558C28.3156 5.19127 29.1031 4.90533 29.9323 4.60308C29.5278 5.40271 28.8923 6.15783 27.9485 6.97346C27.8226 7.0824 27.7837 7.26177 27.8537 7.41277C27.9232 7.56396 28.0827 7.65246 28.2505 7.62477C29.086 7.50271 29.3767 7.47846 30.4234 7.14658C30.4248 7.14583 30.4268 7.1454 30.4288 7.14465C29.8808 7.72108 29.3143 8.31233 28.7114 8.82771C28.1275 9.32708 27.9942 9.82202 27.968 10.458C27.3685 24.9759 13.7491 32.106 2.03633 26.3718C5.01014 26.2198 7.61583 25.2765 9.96533 23.5076Z" fill="#4D4D4D"/>
<path d="M22.7965 9.66926C23.0027 9.66926 23.1699 9.50201 23.1699 9.29582C23.1699 9.08963 23.0027 8.92238 22.7965 8.92238C22.5218 8.92238 22.2986 8.70113 22.2986 8.42932C22.2986 8.15457 22.5218 7.93145 22.7965 7.93145C23.0027 7.93145 23.1699 7.7642 23.1699 7.55801C23.1699 7.35182 23.0027 7.18457 22.7965 7.18457C22.1099 7.18457 21.5518 7.74276 21.5518 8.42932C21.5518 9.11301 22.1099 9.66926 22.7965 9.66926Z" fill="#4D4D4D"/>
</svg>
